<svg width="20" height="21" viewBox="0 0 20 21" fill="none" xmlns="http://www.w3.org/2000/svg">
<path d="M20 10.5C20 10.5 16.25 3.28125 10 3.28125C3.75 3.28125 0 10.5 0 10.5C0 10.5 3.75 17.7188 10 17.7188C16.25 17.7188 20 10.5 20 10.5ZM1.46625 10.5C2.07064 9.53547 2.7658 8.63715 3.54125 7.81856C5.15 6.12675 7.35 4.59375 10 4.59375C12.65 4.59375 14.8488 6.12675 16.46 7.81856C17.2354 8.63715 17.9306 9.53547 18.535 10.5C18.4625 10.6142 18.3825 10.7402 18.2913 10.878C17.8725 11.508 17.2538 12.348 16.46 13.1814C14.8488 14.8733 12.6487 16.4062 10 16.4062C7.35 16.4062 5.15125 14.8733 3.54 13.1814C2.76456 12.3628 2.07065 11.4645 1.46625 10.5Z" fill="url(#paint0_linear_45_9)"/>
<path d="M10 7.21875C9.1712 7.21875 8.37634 7.56445 7.79029 8.17981C7.20424 8.79516 6.875 9.62976 6.875 10.5C6.875 11.3702 7.20424 12.2048 7.79029 12.8202C8.37634 13.4355 9.1712 13.7812 10 13.7812C10.8288 13.7812 11.6237 13.4355 12.2097 12.8202C12.7958 12.2048 13.125 11.3702 13.125 10.5C13.125 9.62976 12.7958 8.79516 12.2097 8.17981C11.6237 7.56445 10.8288 7.21875 10 7.21875ZM5.625 10.5C5.625 9.28166 6.08594 8.11322 6.90641 7.25173C7.72688 6.39023 8.83968 5.90625 10 5.90625C11.1603 5.90625 12.2731 6.39023 13.0936 7.25173C13.9141 8.11322 14.375 9.28166 14.375 10.5C14.375 11.7183 13.9141 12.8868 13.0936 13.7483C12.2731 14.6098 11.1603 15.0938 10 15.0938C8.83968 15.0938 7.72688 14.6098 6.90641 13.7483C6.08594 12.8868 5.625 11.7183 5.625 10.5Z" fill="url(#paint1_linear_45_9)"/>
<defs>
<linearGradient id="paint0_linear_45_9" x1="-3.5" y1="15.171" x2="23.6201" y2="4.45204" gradientUnits="userSpaceOnUse">
<stop offset="0.0237305" stop-color="#94783E"/>
<stop offset="0.216904" stop-color="#F3EDA6"/>
<stop offset="0.329505" stop-color="#F8FAE5"/>
<stop offset="0.486109" stop-color="#FFE2BE"/>
<stop offset="0.723574" stop-color="#D5BE88"/>
<stop offset="0.809185" stop-color="#F8FAE5"/>
<stop offset="0.902849" stop-color="#D5BE88"/>
</linearGradient>
<linearGradient id="paint1_linear_45_9" x1="4.09375" y1="13.4724" x2="16.869" y2="10.001" gradientUnits="userSpaceOnUse">
<stop offset="0.0237305" stop-color="#94783E"/>
<stop offset="0.216904" stop-color="#F3EDA6"/>
<stop offset="0.329505" stop-color="#F8FAE5"/>
<stop offset="0.486109" stop-color="#FFE2BE"/>
<stop offset="0.723574" stop-color="#D5BE88"/>
<stop offset="0.809185" stop-color="#F8FAE5"/>
<stop offset="0.902849" stop-color="#D5BE88"/>
</linearGradient>
</defs>
</svg>
